<svg xmlns="http://www.w3.org/2000/svg" xmlns:xlink="http://www.w3.org/1999/xlink" viewBox="0,0,256,256" width="64px" height="64px" fill-rule="nonzero"><g fill="#ffffff" fill-rule="nonzero" stroke="none" stroke-width="1" stroke-linecap="butt" stroke-linejoin="miter" stroke-miterlimit="10" stroke-dasharray="" stroke-dashoffset="0" font-family="none" font-weight="none" font-size="none" text-anchor="none" style="mix-blend-mode: normal"><g transform="scale(8,8)"><path d="M16,3.99805c-2.91914,0 -5.839,0.34672 -8.75195,1.03906c-1.09735,0.25978 -1.95178,1.11529 -2.21094,2.21289c-1.38423,5.82529 -1.38453,11.67667 0,17.50195c0.25964,1.09677 1.11417,1.95129 2.21094,2.21094c5.82591,1.38468 11.67799,1.38468 17.50391,0c1.09677,-0.25964 1.95129,-1.11417 2.21094,-2.21094v-0.00195c1.38408,-5.82466 1.38408,-11.67534 0,-17.5v-0.00195c-0.25964,-1.09677 -1.11417,-1.95129 -2.21094,-2.21094c-2.91296,-0.69234 -5.83281,-1.03906 -8.75195,-1.03906zM16,5.99609c2.76086,0 5.52202,0.32867 8.28906,0.98633h0.00195c0.34182,0.08071 0.64585,0.38474 0.72656,0.72656v0.00195c1.31532,5.53409 1.31532,11.04404 0,16.57812v0.00195c-0.08071,0.34182 -0.38474,0.64585 -0.72656,0.72656h-0.00195c-5.53409,1.31532 -11.04404,1.31532 -16.57812,0h-0.00195c-0.34183,-0.08075 -0.64585,-0.38474 -0.72656,-0.72656v-0.00195c-1.31532,-5.53409 -1.31532,-11.04404 0,-16.57812v-0.00195c0.08071,-0.34178 0.38474,-0.64585 0.72656,-0.72656h0.00195c2.76705,-0.65766 5.5282,-0.98633 8.28906,-0.98633zM22.5,8c-0.82843,0 -1.5,0.67157 -1.5,1.5c0,0.82843 0.67157,1.5 1.5,1.5c0.82843,0 1.5,-0.67157 1.5,-1.5c0,-0.82843 -0.67157,-1.5 -1.5,-1.5zM16,10c-1.91667,0 -3.48144,0.75476 -4.49805,1.89844c-1.01661,1.14368 -1.50195,2.62934 -1.50195,4.10156c0,1.47222 0.48535,2.95788 1.50195,4.10156c1.01661,1.14368 2.58138,1.89844 4.49805,1.89844c3.30186,0 6,-2.69814 6,-6c0,-3.30186 -2.69814,-6 -6,-6zM16,12c2.22099,0 4,1.77901 4,4c0,2.22098 -1.77901,4 -4,4c-1.41667,0 -2.35189,-0.49524 -3.00195,-1.22656c-0.65006,-0.73132 -0.99805,-1.74566 -0.99805,-2.77344c0,-1.02778 0.34799,-2.04212 0.99805,-2.77344c0.65006,-0.73132 1.58529,-1.22656 3.00195,-1.22656z"></path></g></g></svg>